HIERARCHY
ROOT Hips
{
 OFFSET 0.000000 0.000000 0.000000
 CHANNELS 6 Xposition Yposition Zposition Yrotation Xrotation Zrotation
 JOINT Chest
 {
  OFFSET 0.000000 9.585900 0.002600
  CHANNELS 3 Yrotation Xrotation Zrotation
  JOINT Chest2
  {
   OFFSET 0.000000 9.601200 -0.005300
   CHANNELS 3 Yrotation Xrotation Zrotation
   JOINT Chest3
   {
    OFFSET 0.000000 9.561800 0.000000
    CHANNELS 3 Yrotation Xrotation Zrotation
    JOINT Chest4
    {
     OFFSET 0.000000 9.552100 0.000000
     CHANNELS 3 Yrotation Xrotation Zrotation
     JOINT Neck
     {
      OFFSET 0.000000 14.453000 0.000000
      CHANNELS 3 Yrotation Xrotation Zrotation
      JOINT Head
      {
       OFFSET 0.000000 8.936500 -0.011300
       CHANNELS 3 Yrotation Xrotation Zrotation
       End Site
       {
        OFFSET 0.000000 17.073600 -0.006000
       }
      }
     }
     JOINT RightCollar
     {
      OFFSET -2.921100 9.558500 0.000000
      CHANNELS 3 Yrotation Xrotation Zrotation
      JOINT RightShoulder
      {
       OFFSET -13.519700 0.000000 0.000000
       CHANNELS 3 Yrotation Xrotation Zrotation
       JOINT RightElbow
       {
        OFFSET 0.000000 -29.696600 0.000000
        CHANNELS 3 Yrotation Xrotation Zrotation
        JOINT RightWrist
        {
         OFFSET 0.000000 -24.004700 0.000000
         CHANNELS 3 Yrotation Xrotation Zrotation
         End Site
         {
          OFFSET 0.000000 -17.728500 0.000000
         }
        }
       }
      }
     }
     JOINT LeftCollar
     {
      OFFSET 2.921100 9.558500 0.000000
      CHANNELS 3 Yrotation Xrotation Zrotation
      JOINT LeftShoulder
      {
       OFFSET 13.519700 0.000000 0.000000
       CHANNELS 3 Yrotation Xrotation Zrotation
       JOINT LeftElbow
       {
        OFFSET 0.000000 -29.696600 0.000000
        CHANNELS 3 Yrotation Xrotation Zrotation
        JOINT LeftWrist
        {
         OFFSET 0.000000 -24.004700 0.000000
         CHANNELS 3 Yrotation Xrotation Zrotation
         End Site
         {
          OFFSET 0.000000 -17.728500 0.000000
         }
        }
       }
      }
     }
    }
   }
  }
 }
 JOINT RightHip
 {
  OFFSET -7.771700 -0.012900 -0.001300
  CHANNELS 3 Yrotation Xrotation Zrotation
  JOINT RightKnee
  {
   OFFSET 0.000000 -40.869800 0.001200
   CHANNELS 3 Yrotation Xrotation Zrotation
   JOINT RightAnkle
   {
    OFFSET 0.000000 -39.717900 0.002100
    CHANNELS 3 Yrotation Xrotation Zrotation
    JOINT RightToe
    {
     OFFSET 0.000000 -4.965400 11.033500
     CHANNELS 3 Yrotation Xrotation Zrotation
     End Site
     {
      OFFSET 0.000000 -1.423100 5.872300
     }
    }
   }
  }
 }
 JOINT LeftHip
 {
  OFFSET 7.771700 -0.012900 -0.001300
  CHANNELS 3 Yrotation Xrotation Zrotation
  JOINT LeftKnee
  {
   OFFSET 0.000000 -40.869800 0.001200
   CHANNELS 3 Yrotation Xrotation Zrotation
   JOINT LeftAnkle
   {
    OFFSET 0.000000 -39.717900 0.002100
    CHANNELS 3 Yrotation Xrotation Zrotation
    JOINT LeftToe
    {
     OFFSET 0.000000 -4.965400 11.033500
     CHANNELS 3 Yrotation Xrotation Zrotation
     End Site
     {
      OFFSET 0.000000 -1.423100 5.872300
     }
    }
   }
  }
 }
}
MOTION
Frames: 8
Frame Time: 0.008333
0.000000 85.388000 0.000000 0.000000 -5.767877 0.000000 0.000000 11.653817 0.000000 0.000000 -5.885947 0.000000 0.000000 -0.000000 0.000000 0.000000 -0.000000 0.000000 0.000000 12.528835 0.000000 0.000000 0.711642 0.000000 0.000000 -0.000000 0.000000 0.000000 0.000000 -90.000000 0.000000 -2.309062 0.000000 0.000000 2.309062 0.000000 0.000000 -0.000000 0.000000 0.000000 -0.000000 90.000000 0.000000 -2.309062 0.000000 0.000000 2.309062 0.000000 0.000000 8.520406 0.000000 0.000000 1.905762 0.000000 -0.000000 -4.658285 0.000000 0.000000 -0.000000 0.000000 0.000000 8.520406 0.000000 0.000000 1.905762 0.000000 -0.000000 -4.658285 0.000000 0.000000 -0.000000 0.000000
-29.424576 50.133238 26.750881 163.709547 -12.430573 1.298201 4.902989 8.398827 1.106999 0.283301 0.501107 0.014164 0.490516 0.867132 0.025981 4.524845 7.912123 0.517432 9.496171 21.846749 1.895523 16.652784 5.012814 0.841585 1.018889 5.436250 0.124497 -10.346474 -7.549596 -9.839034 -85.802210 -72.269933 117.998853 -4.490349 -1.126917 -35.860458 -4.491662 3.901607 1.678196 19.814349 -4.460487 3.987337 84.855685 -65.919430 -122.622015 6.985349 -6.790593 16.200906 6.628217 -68.792036 -7.030949 -128.569461 80.450830 -130.283832 -5.049297 -15.928581 3.551277 -0.626570 0.712211 -0.259913 -5.548380 -71.148920 23.192084 109.744191 79.122439 106.725529 -15.822716 -22.370637 0.040765 0.302722 -0.655057 0.173833
-29.437880 50.140274 26.761093 163.719830 -12.436782 1.333931 4.769494 8.382056 1.063767 0.278363 0.497289 0.014526 0.482088 0.860749 0.026665 4.470845 7.894546 0.521241 9.398553 21.813424 1.851573 16.489781 4.949285 0.784696 0.995334 5.496597 0.134178 -10.435252 -7.589812 -9.756490 -86.441751 -72.428902 118.711660 -4.404321 -1.149844 -35.698077 -4.456545 3.939398 1.663972 20.020005 -4.383415 4.127532 84.153119 -65.638342 -121.989417 7.040708 -6.759860 16.216775 6.709627 -68.780893 -7.141122 -128.488977 80.472280 -130.194443 -5.135406 -15.857676 3.533374 -0.539499 0.670208 -0.233491 -5.418488 -71.145546 23.071221 109.639033 79.097231 106.544473 -15.699857 -22.332039 0.057104 0.161722 -0.639926 0.139552
-29.431897 50.147322 26.783788 163.586737 -12.413360 1.266054 4.797163 8.329592 1.156585 0.273752 0.493726 0.015057 0.474118 0.854771 0.027546 4.419356 7.878235 0.527028 9.300057 21.779961 1.805825 16.325543 4.885673 0.724809 0.968441 5.551098 0.146806 -10.502820 -7.629756 -9.674283 -87.074410 -72.582015 119.396441 -4.324172 -1.163226 -35.548970 -4.426476 3.969199 1.644121 20.212041 -4.307583 4.272153 83.611965 -65.412724 -121.487035 7.073072 -6.711688 16.244656 6.581915 -68.810066 -6.900627 -128.206010 80.528056 -129.846432 -5.163335 -15.775428 3.446304 -0.470041 0.655234 -0.213360 -5.355575 -71.167032 23.273892 109.618187 79.182345 106.548288 -15.795571 -22.332732 0.045710 0.251143 -0.602211 0.187958
-29.438861 50.157004 26.799641 163.547574 -12.420472 1.261835 4.722864 8.313816 1.169701 0.269299 0.490332 0.015793 0.466437 0.849119 0.028747 4.369248 7.862926 0.535731 9.200550 21.748789 1.759037 16.159478 4.826385 0.663521 0.946119 5.599299 0.160550 -10.561593 -7.667677 -9.588779 -87.670573 -72.726165 120.030407 -4.249660 -1.168470 -35.417848 -4.398328 3.990497 1.619439 20.392779 -4.231880 4.418418 83.228006 -65.241107 -121.106601 7.088150 -6.644315 16.277365 6.557218 -68.801072 -6.869273 -128.123362 80.566685 -129.741353 -5.175320 -15.736338 3.420230 -0.450791 0.652549 -0.210465 -5.173037 -71.168735 23.228357 109.540243 79.208248 106.425267 -15.763243 -22.276237 0.030918 0.150557 -0.607481 0.222745
-29.447994 50.167324 26.818044 163.505305 -12.414364 1.265080 4.651580 8.283285 1.176397 0.264977 0.487242 0.016662 0.459052 0.843930 0.030201 4.320229 7.849305 0.547146 9.100409 21.721141 1.711822 15.992439 4.773582 0.602002 0.933292 5.643681 0.173634 -10.614941 -7.702346 -9.497789 -88.210909 -72.860382 120.597150 -4.184721 -1.168591 -35.309573 -4.369290 4.006633 1.593582 20.568017 -4.159143 4.557407 82.987776 -65.121018 -120.835457 7.088200 -6.557732 16.309295 6.553671 -68.802609 -6.868788 -128.021876 80.614845 -129.600971 -5.197145 -15.699170 3.374212 -0.400461 0.649566 -0.208007 -4.989712 -71.183729 23.172117 109.458424 79.223946 106.295484 -15.752223 -22.219687 0.060607 0.098930 -0.615875 0.220014
-29.452012 50.178761 26.836414 163.449622 -12.418329 1.240978 4.602126 8.258316 1.216467 0.260783 0.484506 0.017616 0.508786 0.857828 0.020221 4.216158 7.818612 0.571934 8.998801 21.695840 1.664969 15.822650 4.724920 0.541941 0.928094 5.683117 0.185264 -10.652456 -7.730919 -9.401828 -88.692089 -72.984907 121.086346 -4.131388 -1.166805 -35.228294 -4.339337 4.019391 1.568924 20.736310 -4.094862 4.683154 82.867515 -65.049505 -120.657277 7.074112 -6.459003 16.339252 6.460499 -68.799826 -6.769475 -127.886562 80.661982 -129.414979 -5.230535 -15.637469 3.330021 -0.329949 0.630694 -0.214524 -4.861507 -71.187865 23.186467 109.402926 79.250130 106.213801 -15.732158 -22.183840 0.085382 0.063779 -0.614732 0.209875
-29.466325 50.191338 26.850092 163.404617 -12.430515 1.280807 4.540917 8.245880 1.193672 0.306134 0.498406 0.007228 0.423366 0.827792 0.039454 4.196842 7.818514 0.582920 8.894318 21.671874 1.619300 15.647047 4.678356 0.485120 0.927849 5.719120 0.195055 -10.671916 -7.753791 -9.302029 -89.112012 -73.098372 121.495479 -4.090823 -1.162157 -35.176890 -4.310804 4.029373 1.545518 20.894061 -4.038810 4.795995 82.849639 -65.014856 -120.559799 7.047335 -6.354327 16.370972 6.414466 -68.776367 -6.805418 -127.928997 80.746872 -129.437932 -5.174228 -15.633447 3.273013 -0.364215 0.658320 -0.221928 -4.629293 -71.181001 23.042240 109.359113 79.249671 106.121305 -15.699097 -22.126016 0.113209 -0.014242 -0.644372 0.182425
